<svg version="1.1" xmlns="http://www.w3.org/2000/svg" xmlns:xlink="http://www.w3.org/1999/xlink">
    <symbol viewBox="0 0 21 21" id="check-mark">
        <path d="M3.20752 9.72269C2.84509 9.7237 2.49035 9.82731 2.18434 10.0215C1.87834 10.2157 1.63357 10.4926 1.47837 10.8201C1.32316 11.1477 1.26385 11.5124 1.3073 11.8722C1.35076 12.2321 1.49519 12.5722 1.72391 12.8534L6.59954 18.826C6.77338 19.0419 6.99622 19.2131 7.24954 19.3256C7.50286 19.438 7.77935 19.4884 8.05605 19.4725C8.64785 19.4408 9.18214 19.1242 9.52278 18.6037L19.6507 2.29264C19.6524 2.28992 19.6541 2.28723 19.6559 2.28457C19.7509 2.13866 19.7201 1.8495 19.524 1.66785C19.4701 1.61797 19.4065 1.57965 19.3373 1.55524C19.268 1.53084 19.1945 1.52087 19.1213 1.52595C19.048 1.53103 18.9766 1.55105 18.9114 1.58478C18.8461 1.61852 18.7885 1.66525 18.742 1.72209C18.7384 1.72656 18.7346 1.73096 18.7308 1.7353L8.51664 13.2758C8.47778 13.3197 8.43057 13.3554 8.37777 13.381C8.32497 13.4065 8.26762 13.4212 8.20906 13.4244C8.15051 13.4276 8.0919 13.4191 8.03665 13.3994C7.98141 13.3797 7.93062 13.3493 7.88725 13.3098L4.49736 10.225C4.14529 9.90225 3.68513 9.72305 3.20752 9.72269Z" fill="#FF1544"/>
    </symbol>
</svg>