<svg width="21" height="20" viewBox="0 0 21 20" fill="none" xmlns="http://www.w3.org/2000/svg">
<path d="M10.4346 0C4.6695 0 0 4.59124 0 10.2538C0 14.785 2.98952 18.6275 7.13468 19.9823C7.65641 20.0788 7.84771 19.7614 7.84771 19.4893C7.84771 19.2458 7.83901 18.6006 7.83466 17.7458C4.9321 18.3641 4.31993 16.3702 4.31993 16.3702C3.84516 15.1867 3.15908 14.8702 3.15908 14.8702C2.21388 14.2346 3.23213 14.2476 3.23213 14.2476C4.27994 14.3189 4.83036 15.3041 4.83036 15.3041C5.76078 16.8719 7.27293 16.4189 7.86945 16.1572C7.96336 15.4937 8.23205 15.0424 8.53031 14.7859C6.21295 14.5293 3.77733 13.6476 3.77733 9.71899C3.77733 8.59987 4.18168 7.6851 4.85123 6.96772C4.73384 6.7086 4.38167 5.666 4.94253 4.25385C4.94253 4.25385 5.81643 3.97907 7.81206 5.30514C8.64683 5.07732 9.53377 4.96427 10.4207 4.95906C11.3077 4.96427 12.1946 5.07732 13.0294 5.30514C15.0119 3.97907 15.8858 4.25385 15.8858 4.25385C16.4467 5.666 16.0945 6.7086 15.9902 6.96772C16.6554 7.6851 17.0597 8.59987 17.0597 9.71899C17.0597 13.6581 14.6206 14.525 12.2989 14.7772C12.6642 15.085 13.0033 15.7137 13.0033 16.6745C13.0033 18.0467 12.9902 19.1493 12.9902 19.4823C12.9902 19.751 13.1728 20.0719 13.7076 19.9693C17.8823 18.6232 20.8693 14.778 20.8693 10.2538C20.8693 4.59124 16.1971 0 10.4346 0Z" fill="#D1CFDD"/>
</svg>
